<svg width="20" height="20" viewBox="0 0 20 20" fill="none" xmlns="http://www.w3.org/2000/svg">
<g clip-path="url(#clip0_3126_1339)">
<path d="M10.4525 13.275L17.09 6.30875C17.2008 6.19251 17.2626 6.03808 17.2626 5.8775C17.2626 5.71691 17.2008 5.56248 17.09 5.44625L17.0825 5.43875C17.0288 5.3822 16.9641 5.33718 16.8925 5.30641C16.8208 5.27564 16.7436 5.25978 16.6656 5.25978C16.5876 5.25978 16.5105 5.27564 16.4388 5.30641C16.3671 5.33718 16.3025 5.3822 16.2488 5.43875L9.99876 11.9987L3.75126 5.43875C3.69755 5.3822 3.63289 5.33718 3.56122 5.30641C3.48956 5.27565 3.41238 5.25978 3.33439 5.25978C3.2564 5.25978 3.17922 5.27565 3.10756 5.30641C3.03589 5.33718 2.97123 5.3822 2.91751 5.43875L2.91001 5.44625C2.79921 5.56248 2.73739 5.71691 2.73739 5.8775C2.73739 6.03809 2.79921 6.19251 2.91001 6.30875L9.54751 13.275C9.60589 13.3363 9.67609 13.385 9.75387 13.4184C9.83166 13.4517 9.91539 13.4689 10 13.4689C10.0846 13.4689 10.1684 13.4517 10.2462 13.4184C10.3239 13.385 10.3941 13.3363 10.4525 13.275Z" fill="#ECF1F0"/>
</g>
<defs>
<clipPath id="clip0_3126_1339">
<rect width="20" height="20" fill="white" transform="translate(20 20) rotate(180)"/>
</clipPath>
</defs>
</svg>
